<svg width="318" height="38" viewBox="0 0 318 38" xmlns="http://www.w3.org/2000/svg">
  <g transform="translate(1 1)" fill="none" fill-rule="evenodd">
    <g fill-rule="nonzero">
      <path d="M53.34999957 26.3000003c-.0992078-.0971543-.15354607-.2311887-.15-.37v-14c-.00938167-.14378189.04131594-.28501093.14-.39.0957017-.10135375.23073688-.15609774.37-.15h9.36c.14653043-.00288325.28771373.05503809.39000003.16.0997471.10089889.1539347.23817405.15.38v1.51000001c.0077062.14246375-.0470626.28121135-.15.38-.1073178.09481541-.2468815.14491518-.39000003.14h-6.91v4.04h6.49c.14182596-.00393475.27910112.05025282.38.15.10662315.0969719.16514734.23596683.16.38v1.51c.0077062.14246375-.04706259.28121135-.15.38-.10476705.0924364-.2403039.14237103-.38.14h-6.5v5.33999999c.00380632.143784-.05449221.282243-.16.38-.10191588.0971123-.23943996.147779-.38.14h-1.9c-.13434317.0104502-.26736248-.0326912-.37-.12zM66.3099996 26.3000003c-.0976584-.0940756-.1519662-.2244142-.15-.36v-14.06c-.0063893-.14224683.0481726-.28047023.15-.38.1026839-.08816987.2347333-.1345656.37-.13h2c.1378016-.00891894.2727691.04194217.3704135.13958652.0976443.09764435.1485054.23261186.1395865.37041349V25.9400003c.000839.1364285-.0490581.2682994-.14.37-.0995298.1018274-.2377532.1563892-.38.15h-2c-.1379218.0033505-.2700652-.0553799-.36-.16zM72.7499996 26.3100003c-.0982036-.0978243-.1523588-.2314071-.15-.37v-14c-.0093817-.14378189.0413159-.28501093.14-.39.0987886-.1029374.2375362-.1577062.38-.15h5.58c1.4780521-.08478315 2.9391706.35036836 4.13 1.23000001 1.0134287.867548 1.5643793 2.15802961 1.49 3.49.0342188.93847341-.2320383 1.86336644-.76 2.64-.525426.72952297-1.2725538 1.26969984-2.13 1.54l3.15 5.49999999c.0364543.0749636.0568886.1567007.06.24.0063768.1227702-.0455065.2413605-.14.32-.0807301.0845993-.193075.1318251-.31.13h-2c-.1886775.0126067-.3759137-.0403847-.53-.15-.1371516-.1202894-.2492831-.2664003-.33-.43l-2.78-5.10999999h-3v5.16999999c.000839.1364285-.0490581.2682994-.14.37-.0987887.1029374-.2375363.1577062-.38.15h-2c-.110838-.0269958-.2094249-.0903731-.28-.18zm5.89-7.99999999c.7158646.06486361 1.4299054-.14220824 2-.58.45813-.43449692.6998785-1.04985686.66-1.68.0376158-.63567114-.2033094-1.25623611-.66-1.7-.561883-.45585294-1.279354-.67468157-2-.61h-3v4.57h3zM89.0499996 26.1000003c-.8060466-.3207502-1.513184-.8485161-2.05-1.53-.447132-.5751291-.7087132-1.272679-.75-2-.0031147-.1212079.0397566-.239104.12-.33.0899071-.0830211.2076258-.1293951.33-.13h1.92c.1390605-.0072105.2774293.0239225.4.09.1091478.0889164.2007194.1974456.27.32.1714391.5186373.5272726.9563125 1 1.23.6425531.3603329 1.3744111.5302905 2.11.49.8027487.0520427 1.6037833-.1248091 2.31-.51.4926991-.2962328.787115-.835358.77-1.41.0161965-.375264-.1294688-.7394271-.4-1-.3416328-.30411912-.7437845-.53245949-1.18-.66999999-.5333334-.18-1.3133334-.41-2.34-.69-1.345443-.2438215-2.6176428-.7910042-3.72-1.6-.8037557-.72642028-1.2341613-1.77852281-1.17-2.86-.0145875-.79340068.2235588-1.57087838.68-2.22.505045-.69232222 1.1996511-1.22369584 2-1.53.9506435-.39168124 1.972071-.5823477 3-.56 1.0544361-.02320704 2.1004861.1921562 3.06.63.7896727.33944807 1.4785036.87673617 2 1.56.4163352.53647169.6666162 1.18303093.72 1.86.0048848.12336717-.0422869.24311077-.13.33-.0857308.08325472-.2004964.12987825-.32.13h-2c-.274762.01609961-.5272472-.15086642-.62-.41-.1122069-.48974677-.4240009-.91030615-.86-1.16-.5504293-.32365171-1.1818918-.48325212-1.82-.46-.6602032-.03528721-1.3165361.12098253-1.89.45-.4491723.28050431-.7127525.78092467-.69 1.31-.017418.36436572.1040972.72176331.34 1 .3055938.31056751.6785479.54665771 1.09.69a19.90999875 19.90999875 0 002.15.67c1.0338512.22155782 2.0399843.55693554 3 1 .6727257.28852123 1.2512288.75963753 1.67 1.36.3831762.62774389.5711338 1.35520949.54 2.08999999.0204532.862234-.2469626 1.7067047-.76 2.4-.5572042.7146152-1.3064371 1.2557278-2.16 1.56-1.0239658.3768256-2.1090803.5599387-3.2.54-1.1721012.0268071-2.3369073-.1911684-3.42-.64zM104.2499996 26.3200003c-.0982036-.0978243-.1523588-.2314071-.15-.37V14.00000031h-4c-.1355858.00196614-.2659244-.05234161-.36-.15-.0992078-.09715433-.1535461-.2311887-.15-.37v-1.56c-.0093817-.1437819.0413159-.28501094.14-.39.0957017-.10135376.2307369-.15609775.37-.15h11c.1457525-.00885845.288311.04518343.3915638.1484362.1032527.10325277.1572946.24581128.1484362.3915638v1.6c.0019661.13558581-.0523416.26592441-.15.36-.1039729.10129853-.2449438.15551813-.39.15h-4V26.0000003c.003546.1388113-.0507922.2728457-.15.37-.1046041.100309-.2451384.1543607-.39.15h-2c-.1254423-.0237361-.2366672-.0954942-.31-.2zM119.4699996 25.2000003c-1.1710671-1.1654832-1.7987807-2.769237-1.73-4.41999999v-1.83-1.85c-.0564953-1.6486125.5821155-3.2451394 1.76-4.4 2.6796729-2.03862708 6.3903271-2.03862708 9.07 0 1.1841786 1.15210719 1.8300319 2.74859851 1.78 4.4v1.86c0 .41 0 1-.05 1.83.0527052 1.64996489-.5766494 3.24876939-1.74 4.41999999-2.7245148 1.9814029-6.4154852 1.9814029-9.14 0l.05-.01zm6.87-1.86c.6376549-.7357511.9703099-1.6872161.93-2.65999999v-1.75-1.74c.0386279-.97382341-.289694-1.9266707-.92-2.67-.6176666-.59521478-1.4531438-.90987499-2.31-.87-.8479554-.03992845-1.6741884.27534467-2.28.87-.6376549.73575107-.97031 1.6872161-.93 2.66v3.5c-.0418239.96953329.2830785 1.91924799.91 2.65999999 1.314743 1.1578806 3.285257 1.1578806 4.6 0zM133.3699996 26.3300003c-.0992078-.0971543-.1535461-.2311887-.15-.37v-14c-.0049152-.14311853.0451846-.28268218.14-.39.0995297-.10182735.2377531-.15638922.38-.15h5.78c1.4575102-.08111159 2.897436.35051235 4.07 1.22000001 1.0275874.89153634 1.5789043 2.21247688 1.49 3.57.0944745 1.35057523-.4541347 2.66649604-1.48 3.55-1.1829471.85351983-2.6236868 1.27373557-4.08 1.19h-3.22v4.99999999c.0057045.1395833-.0472469.2751877-.1460296.3739704s-.2343871.1517341-.3739704.1460296h-2c-.1508382.0180409-.3016976-.0334721-.41-.14zm6-7.79999999c.6922269.04473469 1.3764168-.16907466 1.92-.6.4694768-.45664489.7144815-1.09658248.67-1.75.0346595-.651102-.2004562-1.28772311-.65-1.76-.5368094-.46109479-1.2341989-.69116145-1.94-.64h-3.15v4.75h3.15zM150.8999996 26.3400003c-.1028904-.0954172-.1609496-.229679-.16-.37V14.05000031h-4c-.140321.00094952-.2745828-.05710962-.37-.16-.0976584-.09407559-.1519662-.22441419-.15-.36v-1.6c-.0043951-.1400319.0458055-.27629055.14-.38.0961424-.10778986.235712-.166556.38-.16H157.74c.141826-.00393475.279101.05025282.38.15.101298.10397285.155518.24494381.15.39v1.59c.003546.1388113-.050793.27284567-.15.37-.100899.09974718-.238174.15393474-.38.15h-4V26.0000003c.002358.1385929-.051797.2721757-.15.37-.103973.1012985-.244944.1555181-.39.15h-2.0000004c-.1187426-.0210398-.2255566-.0851282-.3-.18zM160.62 26.3400003c-.099208-.0971543-.153546-.2311887-.15-.37v-14c-.007707-.14246375.047062-.28121135.15-.38.1017-.0909419.233571-.140839.37-.14h2c.137146-.00501658.270526.0454517.37.14.09817.10125382.149013.2392576.14.38v14.03c.002836.1367799-.047329.2693584-.14.37-.09953.1018274-.237754.1563892-.38.15h-2c-.140242-.0056715-.271318-.0712098-.36-.18zM168.14 25.2200003c-1.166352-1.1678837-1.790165-2.7709377-1.72-4.41999999v-1.83-1.86c-.048583-1.64623705.593137-3.23784909 1.77-4.39 2.67536-2.04040405 6.384639-2.04040405 9.06 0 1.184178 1.15210719 1.830032 2.74859851 1.78 4.4v3.68c.050106 1.65143749-.582988 3.25045339-1.75 4.41999999-2.722454 1.9877317-6.417547 1.9877317-9.14 0zm6.86-1.86c.655151-.729866 1.012079-1.6792954 1-2.65999999v-1.75-1.75c.036284-.97218172-.295869-1.92221168-.93-2.66-1.309787-1.16090746-3.280214-1.16090746-4.59 0-.634132.73778832-.966285 1.68781828-.93 2.66v3.49c-.038628.97382339.289694 1.92667069.92 2.66999999.604762.6026421 1.437646.9190652 2.29.87.832876.0207054 1.639439-.2925579 2.24-.87zM182 26.3500003c-.098204-.0978243-.152359-.2314071-.15-.37v-13.98c-.009382-.14378189.041316-.28501093.14-.39.098788-.1029374.237536-.1577062.38-.15h1.66c.132949-.01032076.265802.02114444.38.09a1.13999913 1.13999913 0 01.24.25l6.21 9.66v-9.46c-.004916-.14311853.045184-.28268218.14-.39.098788-.1029374.237536-.1577062.38-.15h1.81c.144483-.00218976.284221.05155552.39.15.101298.10397286.155518.24494382.15.39v14c.005518.1450562-.048702.2860272-.15.39-.097155.0992078-.231189.1535461-.37.15h-1.68c-.250478-.0026856-.483079-.1302413-.62-.34l-6.19-9.44999999v9.24999999c.006389.1422468-.048173.2804702-.15.38-.107318.0948154-.246882.1449152-.39.14h-1.81c-.141587-.0028387-.275619-.0644208-.37-.17zM199.07 26.1400003c-.811703-.320606-1.525352-.8480858-2.07-1.53-.443302-.5772631-.704425-1.2735896-.75-2-.005581-.1218774.039695-.2406004.125012-.3278138.085318-.0872134.203017-.1350867.324988-.1321862h1.92c.139148-.008273.277804.0229246.4.09.106887.0873169.198183.192138.27.31.166292.5214379.52348.9607797 1 1.23.640057.3675219 1.373083.5412248 2.11.5.802748.0520427 1.603783-.1248091 2.31-.51.498137-.2921398.797211-.8327738.78-1.41.011164-.3743898-.133716-.7365898-.4-1-.345611-.30386506-.750956-.53208451-1.19-.66999999-.52-.18-1.3-.41-2.34-.69-1.343936-.24450857-2.61345-.79542977-3.71-1.61-.81206-.71700563-1.247543-1.76880824-1.18-2.85-.011165-.79291653.226665-1.56936228.68-2.22.50708-.6903291 1.201042-1.22120955 2-1.53.95097-.3905737 1.972165-.58119664 3-.56 1.05472-.02636097 2.101471.18914662 3.06.63.789672.33944807 1.478503.87673617 2 1.56.416335.53647169.666616 1.18303093.72 1.86.00558.12187743-.039696.24060038-.125013.32781379-.085317.0872134-.203017.13508673-.324987.13218621h-2c-.277459.01730091-.533461-.1493033-.63-.41-.107544-.49188028-.420605-.91414795-.86-1.16-.546674-.3238867-1.175021-.48357702-1.81-.46-.663453-.0360894-1.323213.12016965-1.9.45-.450781.28377242-.714298.78789144-.69 1.32-.014654.36569948.110491.72325714.35 1 .301813.31040346.671496.54658975 1.08.69a19.90992915 19.90992915 0 002.15.67c1.033193.2239617 2.039068.55925319 3 1 .647521.27884078 1.209843.72386837 1.63 1.29.383176.62774389.571133 1.35520949.54 2.08999999.016806.863286-.254087 1.7076282-.77 2.4-.557205.7146152-1.306437 1.2557278-2.16 1.56-1.023725.3777329-2.109011.560875-3.2.54-1.14075.0296508-2.276033-.1674943-3.34-.58z" fill="#2E4052"/>
      <path d="M216.24 26.3700003c-.093991-.0957685-.144595-.2258926-.14-.36v-14.07c-.0114-.1358385.035494-.2701174.128979-.3693267.093486-.0992093.224745-.15399074.361021-.1506733h8.8c.141341-.01236311.280911.03843768.381237.138763.100325.10032531.151126.23989525.138763.381237v.86000001c.004594.13410739-.046009.26423149-.14.36-.10371.09419446-.239969.14439502-.38.14h-7.2v5H225c.137146-.00501659.270526.04545169.37.14.100431.09981673.151666.23888401.14.38v.86c.003199.13582037-.051307.26663527-.15.36-.100642.09267179-.233221.14283661-.37.14h-6.79v5.81999999c.00586.1363067-.049088.2681822-.15.36-.097574.0911578-.226476.1412864-.36.14h-1.09c-.132164.0040128-.260893-.0424726-.36-.13zM228.83 26.3700003c-.092443-.0926941-.143014-.2191235-.14-.35v-14.08c-.009014-.1407424.04183-.27874618.14-.38.092694-.09244217.219123-.14301392.35-.14h8.91c.131532-.00680208.259443.044362.35.14.096099.1025442.1466.23961923.14.38v.81000001c.008454.13283399-.038628.26321467-.13.36-.094394.09609913-.225483.14707824-.36.14h-7.33v4.75h6.86c.136275-.00331745.267534.05146398.36102.15067328.093485.09920931.14038.23348821.12898.36932672v.8c.002754.13078097-.047986.25702104-.140483.34951766-.092496.09249662-.218736.14323654-.349517.14048234h-6.86v4.88999999h7.5c.134084-.0083392.266332.0345521.37.12.092951.0998585.140063.2339472.13.37v.81c.005722.1342808-.045117.2648095-.140154.3598465-.095037.0950369-.225566.1458755-.359846.1401535h-9.07c-.133009.0097042-.263879-.0375542-.36-.13zM241.9 26.3800003c-.100913-.0918178-.155861-.2236933-.15-.36v-14.02c-.006601-.14038077.043901-.2774558.14-.38.095768-.09399093.225892-.14459475.36-.14h5.26c1.391011-.0812173 2.765772.33333691 3.88 1.17000001.963777.83780181 1.484575 2.07515997 1.41 3.35.034941.96157338-.249921 1.90759639-.81 2.69-.573335.73216151-1.376473 1.24997464-2.28 1.47L253 25.8500003c.036454.0749636.056888.1567007.06.24.004808.1167991-.047394.2286612-.14.3-.08073.0845993-.193075.1317117-.31.13h-1c-.18232.0112606-.362809-.0418244-.51-.15-.137152-.1202894-.249284-.2664003-.33-.43l-3.13-5.47999999h-3.77v5.53999999c.00586.1363067-.049088.2681822-.15.36-.101701.0909419-.233572.140839-.37.14h-1.1c-.128015.0083793-.254058-.0348352-.35-.12zm5.53-7.74999999c2.14 0 3.21-.9 3.21-2.69s-1.07-2.7-3.21-2.7h-3.56v5.39h3.56zM259.14 26.3800003c-.100432-.0998167-.151667-.238884-.14-.38V13.35000031h-4.13c-.134945.00982727-.26715-.04158557-.36-.14-.092443-.09269409-.143014-.21912347-.14-.35v-.86c-.001287-.13352425.048842-.26242626.14-.36.088087-.10707604.221493-.16636743.36-.16h10.39c.137146-.00501659.270526.0454517.37.14.097683.09747456.148689.23227608.14.37v.91c.001966.13558581-.052342.26592441-.15.36-.097574.0911578-.226476.14128635-.36.14h-4.12V26.0000003c.001966.1355858-.052342.2659244-.15.36-.099108.0875274-.227837.1340961-.36.13h-1.13c-.130309.0176965-.261838-.0224929-.36-.11zM268.32 26.3900003c-.092063-.0970028-.142339-.2262857-.14-.36v-14.1c-.006803-.1315329.044362-.25944311.14-.35.092694-.09244217.219123-.14301392.35-.1401274h1.15c.130876-.00288652.257305.04768523.35.1401274.098414.09285079.149827.22505523.14.36v14.06c.002338.1337143-.047938.2629972-.14.36-.097574.0911578-.226476.1412864-.36.14h-1.14c-.126273.0080189-.251018-.0311867-.35-.11zM274.21 26.3900003c-.098415-.0928508-.149828-.2250552-.14-.36v-14.09c-.004595-.13410738.046009-.26423148.14-.36.097573-.0911578.226475-.14128635.36-.14002415h1.14c.133524-.0012622.262426.04886636.36.14002416.092062.09700281.142338.22628568.14.36V24.6600003h7.16c.140031-.004395.27629.0458055.38.14.096099.1025442.1466.2396192.14.38v.82c.004257.1331156-.05067.261279-.15.35-.100073.0935905-.233039.1439789-.37.14h-8.8c-.128581.0166553-.258431-.0194141-.36-.1zM286.34 26.3900003c-.092443-.0926941-.143014-.2191235-.14-.35v-14.1c-.003014-.13087652.047557-.2573059.14-.35.088721-.09933002.216884-.15425721.35-.15h1.15c.130781-.0027542.257021.04798573.349517.14048235.092497.09249661.143237.21873669.140483.34951766V26.0000003c.003013.1308765-.047558.2573059-.14.35-.093365.0986937-.22418.1531999-.36.15h-1.13c-.129972.0138793-.259983-.0258462-.36-.11zM295.53 26.4000003c-.0961-.0943932-.147079-.2254823-.14-.36V13.37000031h-4.14c-.132573.00287905-.260431-.04921362-.353244-.14392114-.092814-.09470751-.142313-.22359128-.136756-.35607886v-.87c-.005806-.1343104.044979-.26490005.14-.36.088721-.09933003.216884-.15425722.35-.15h10.39c.14038-.0066003.277455.04390102.38.14.094194.10370945.144395.2399681.14.38v.9c.00586.13630666-.049088.26818223-.15.36-.100642.09267179-.233221.14283661-.37.14h-4.11V26.0000003c.00586.1363067-.049088.2681822-.15.36-.100642.0926718-.233221.1428366-.37.14h-1.12c-.128581.0166553-.258431-.0194141-.36-.1zM308.74 26.4000003c-.092443-.0926941-.143014-.2191235-.14-.35v-5.04999999l-5.19-8.8a1.05004479 1.05004479 0 000-.13c-.013643-.04906947-.013643-.10093054 0-.15-.000139-.1136997.046943-.22235146.13-.3.075292-.08633782.185516-.1341016.3-.13h1.12c.24384.00032108.464063.14582539.56.37l4.2 7 4.21-7c.113677-.21779344.334583-.35871649.58-.37h1.1c.121669-.0007083.237944.05016179.32.14.086337.07529273.134101.18551684.13.3-.009216.09878119-.039934.19434955-.09.28l-5.23 8.79v5.08999999c.004257.1331156-.05067.261279-.15.35-.0951.095021-.22569.1458059-.36.14h-1.13c-.141641 0-.275016-.0666874-.36-.18z" fill="#1ABC9C"/>
    </g>
    <circle stroke="#2E4052" stroke-width="1.63200006" cx="18.0000007" cy="18.0000007" r="18.0000007"/>
    <path d="M32.3121345 12.3238977c.1228552 3.1287782-6.1092522 2.998829-9.5827028 3.1287782-3.4877764.1067368-6.4123842-2.3363232-6.533661-5.45786875-.1228551-3.12877824 3.4399446-7.39711151 6.9245638-7.50706857 3.4846192-.10995707 9.0689449 6.75736133 9.1918 9.83615912zM21.7080009 24.732001c0 3.7560001-3.9960002 8.7480003-7.7400003 8.7480003-3.7440002 0-11.19600049-5.0280002-11.19600049-10.8000004 0-8.8320003 8.40000029-4.6920002 12.15600049-4.6920002 3.7277724.0064931 6.7536612 3.0163153 6.7800003 6.7440003z" stroke="#FFF" stroke-width=".88800004" fill="#2E4052" fill-rule="nonzero"/>
    <path d="M23.4000009 32.5920013c-3.8760001 0-10.2960004-4.0560002-10.2960004-8.4000003 0-4.0560002 6.2520003-10.3320004 10.2960004-10.3320004 4.3080002 0 8.4000004 6.4560002 8.4000004 10.3320004-.096 4.0920001-4.3920002 8.4000003-8.4000004 8.4000003z" fill="#2E4052" fill-rule="nonzero"/>
    <path d="M23.4000009 14.4960006c3.7440002 0 7.7520003 6 7.7520003 9.7080004 0 3.7080001-4.0680001 7.7760003-7.7520003 7.7760003-3.6840004 0-9.6840004-4.0200002-9.6840004-7.7760003 0-3.7560002 5.9400003-9.7080004 9.6840004-9.7080004m0-1.2000001c-4.3800001 0-10.9080004 6.5520003-10.9080004 10.9440005 0 4.6440001 6.8040003 9.0000003 10.9080004 9.0000003 4.4520002 0 8.9760004-4.5360002 8.9760004-9.0000003 0-4.1160002-4.3440002-10.9440005-8.9760004-10.9440005z" fill="#FFF" fill-rule="nonzero"/>
    <path d="M9.54000038 20.0520008c-2.95200012 0-4.9440002-.744-5.91600024-2.1960001-.97200003-1.452-.88800003-3.3840001.14400001-5.8800002L4.9680002 8.94000036c1.20000005-3.16800013 3.32400013-3.78000015 5.5080002-4.41600018 1.3647909-.42518292 2.7827976-.65545752 4.2120002-.68400003 2.8440001 0 4.2360002 1.20000005 4.8960002 2.18400009 1.068 1.59600006 1.092 3.93600016 0 6.43200026a12.00000034 12.00000034 0 00-.9480001 2.0880001c-.852 2.2920001-1.824 4.8840002-6.9240002 5.3880002a21.48000749 21.48000749 0 01-2.23200012.12h.06z" fill="#2E4052" fill-rule="nonzero"/>
    <path d="M14.6880006 4.45200018c4.8000002 0 6.0960002 3.66000014 4.3920002 7.76400032-1.6440001 2.6520001-1.1040001 6.4800002-7.3800003 7.1040003a20.18403583 20.18403583 0 01-2.16000012.12c-5.58000022 0-7.08000028-2.6880001-5.20800021-7.2000003.06-.132.21600001-.54.40800002-1.0200001l.79200003-2.02800003C6.67200027 6.33600025 8.40000033 5.79600023 10.6560004 5.1360002c1.3058006-.41051508 2.6634626-.63275142 4.0320002-.66000002m0-1.20000005c-1.485957.02965997-2.9603737.26799034-4.3800002.70800003-2.23200008.64800002-4.54800017 1.33200005-5.91600023 4.80000019l-.33600001.85200003-.45600002 1.20000002c-.18.468-.33600001.8640001-.39600001.9960001-1.11600005 2.6880001-1.20000005 4.8600002-.09600001 6.4439996 1.10400005 1.5840007 3.26400013 2.4720007 6.43200026 2.4720007a22.42798848 22.42798848 0 002.29200012-.12c5.4720002-.552 6.5640002-3.4560001 7.4400003-5.7840002a10.63199604 10.63199604 0 01.852-1.8960001v-.18c1.116-2.6760001 1.068-5.2320002-.108-6.99600027-.756-1.12800005-2.2920001-2.4000001-5.4120002-2.4000001l.084-.096z" fill="#FFF" fill-rule="nonzero"/>
    <g transform="rotate(5.71 -41.20521716 220.14683324)">
      <path d="M7.53773682 16.7470944c.94067211-1.7592372 1.79195728-3.4702321 4.03775488-5.4030433 2.2457976-1.93281126 5.6519326-2.08873289 6.2943429-2.3376006.6110353-.27302551.9942063-.49773542 1.3383546-1.50178791.3441483-1.00405248-.5165364-4.19767113-.0347287-5.12448881.4818076-.92681768 2.0880012-1.62559397 2.4856837-1.78864522" stroke="#1ABC9C" stroke-width="2.04284136" stroke-linecap="round"/>
      <ellipse fill="#1ABC9C" fill-rule="nonzero" transform="rotate(-58 5.465305 19.644265)" cx="5.46530541" cy="19.6442645" rx="4.11898187" ry="3.03908246"/>
    </g>
  </g>
</svg>
