<svg xmlns="http://www.w3.org/2000/svg" width="26" height="28" viewBox="0 0 26 28"><g fill="none" fill-rule="evenodd"><path d="M-3-1h32v32H-3z"/><path fill="#566BC8" fill-rule="nonzero" d="M3.667 28A3.666 3.666 0 0 1 0 24.333V7a3.666 3.666 0 0 1 3.667-3.667h2.999V1.667A1 1 0 0 1 8.66 1.55l.007.117-.001 1.666h8.667V1.667a1 1 0 0 1 1.994-.117l.006.117v1.666h3c1.96 0 3.56 1.537 3.662 3.472L26 7v17.333A3.666 3.666 0 0 1 22.333 28zM24 12H2v12.333c0 .873.67 1.588 1.523 1.66l.144.007h13.666v-3c0-1.235.96-2.246 2.174-2.328l.16-.005L24 20.666V12zm0 10.666h-4.333a.334.334 0 0 0-.327.267l-.007.067v3h3c.873 0 1.588-.67 1.66-1.523l.007-.144v-1.667zm-11-2a1 1 0 0 1 .117 1.994l-.117.007H6.333a1 1 0 0 1-.116-1.994l.116-.006H13zm6.667-5.333a1 1 0 0 1 .116 1.994l-.116.006H6.333a1 1 0 0 1-.116-1.993l.116-.007h13.334zm-13.001-10h-3C2.747 5.333 2 6.08 2 7v3h22V7c0-.873-.67-1.588-1.523-1.66l-.144-.007h-3V7a1 1 0 0 1-1.993.117L17.333 7V5.333H8.666V7a1 1 0 0 1-1.993.117L6.667 7l-.001-1.667z"/></g></svg>