<svg xmlns="http://www.w3.org/2000/svg" width="318" height="38" viewBox="0 0 318 38"><g fill="none" fill-rule="evenodd" transform="translate(1 1)"><g fill-rule="nonzero"><path fill="#2E4052" d="M53.35 26.3a.5.5 0 0 1-.15-.37v-14a.52.52 0 0 1 .14-.39.48.48 0 0 1 .37-.15h9.36a.53.53 0 0 1 .54.54v1.51a.49.49 0 0 1-.15.38.56.56 0 0 1-.39.14h-6.91V18h6.49a.52.52 0 0 1 .38.15.49.49 0 0 1 .16.38v1.51a.49.49 0 0 1-.15.38.56.56 0 0 1-.38.14h-6.5v5.34a.51.51 0 0 1-.54.52h-1.9a.51.51 0 0 1-.37-.12zm12.96 0a.49.49 0 0 1-.15-.36V11.88a.5.5 0 0 1 .15-.38.54.54 0 0 1 .37-.13h2a.48.48 0 0 1 .51.51v14.06a.55.55 0 0 1-.14.37.5.5 0 0 1-.38.15h-2a.46.46 0 0 1-.36-.16zm6.44.01a.51.51 0 0 1-.15-.37v-14a.52.52 0 0 1 .14-.39.49.49 0 0 1 .38-.15h5.58a6.34 6.34 0 0 1 4.13 1.23 4.28 4.28 0 0 1 1.49 3.49 4.41 4.41 0 0 1-.76 2.64 4.17 4.17 0 0 1-2.13 1.54l3.15 5.5a.6.6 0 0 1 .06.24.39.39 0 0 1-.14.32.42.42 0 0 1-.31.13h-2a.82.82 0 0 1-.53-.15 1.39 1.39 0 0 1-.33-.43l-2.78-5.11h-3v5.17a.55.55 0 0 1-.14.37.49.49 0 0 1-.38.15h-2a.51.51 0 0 1-.28-.18zm5.89-8a2.86 2.86 0 0 0 2-.58c.458-.434.7-1.05.66-1.68a2.19 2.19 0 0 0-.66-1.7 2.78 2.78 0 0 0-2-.61h-3v4.57h3zm10.41 7.79A4.93 4.93 0 0 1 87 24.57a3.59 3.59 0 0 1-.75-2 .48.48 0 0 1 .12-.33.49.49 0 0 1 .33-.13h1.92a.76.76 0 0 1 .4.09c.11.089.2.197.27.32a2.23 2.23 0 0 0 1 1.23 3.88 3.88 0 0 0 2.11.49 4.25 4.25 0 0 0 2.31-.51 1.59 1.59 0 0 0 .77-1.41 1.31 1.31 0 0 0-.4-1 3.24 3.24 0 0 0-1.18-.67c-.533-.18-1.313-.41-2.34-.69a9 9 0 0 1-3.72-1.6 3.57 3.57 0 0 1-1.17-2.86 3.74 3.74 0 0 1 .68-2.22 4.44 4.44 0 0 1 2-1.53 7.45 7.45 0 0 1 3-.56 7 7 0 0 1 3.06.63 5 5 0 0 1 2 1.56 3.48 3.48 0 0 1 .72 1.86.44.44 0 0 1-.13.33.46.46 0 0 1-.32.13h-2a.62.62 0 0 1-.62-.41 1.8 1.8 0 0 0-.86-1.16 3.35 3.35 0 0 0-1.82-.46 3.43 3.43 0 0 0-1.89.45c-.45.28-.713.78-.69 1.31a1.44 1.44 0 0 0 .34 1c.306.31.679.547 1.09.69a19.91 19.91 0 0 0 2.15.67 14.32 14.32 0 0 1 3 1 3.92 3.92 0 0 1 1.67 1.36 3.71 3.71 0 0 1 .54 2.09 3.88 3.88 0 0 1-.76 2.4 4.77 4.77 0 0 1-2.16 1.56 8.8 8.8 0 0 1-3.2.54 8.43 8.43 0 0 1-3.42-.64zm15.2.22a.51.51 0 0 1-.15-.37V14h-4a.49.49 0 0 1-.36-.15.5.5 0 0 1-.15-.37v-1.56a.52.52 0 0 1 .14-.39.48.48 0 0 1 .37-.15h11a.51.51 0 0 1 .54.54v1.6a.49.49 0 0 1-.15.36.53.53 0 0 1-.39.15h-4V26a.5.5 0 0 1-.15.37.54.54 0 0 1-.39.15h-2a.49.49 0 0 1-.31-.2zm15.22-1.12a5.89 5.89 0 0 1-1.73-4.42V17.1a5.88 5.88 0 0 1 1.76-4.4 7.49 7.49 0 0 1 9.07 0 5.89 5.89 0 0 1 1.78 4.4v1.86c0 .41 0 1-.05 1.83a6 6 0 0 1-1.74 4.42 7.77 7.77 0 0 1-9.14 0l.05-.01zm6.87-1.86a3.82 3.82 0 0 0 .93-2.66v-3.49a3.89 3.89 0 0 0-.92-2.67 3.12 3.12 0 0 0-2.31-.87 3.05 3.05 0 0 0-2.28.87 3.82 3.82 0 0 0-.93 2.66v3.5a3.86 3.86 0 0 0 .91 2.66 3.48 3.48 0 0 0 4.6 0zm7.03 2.99a.5.5 0 0 1-.15-.37v-14a.56.56 0 0 1 .14-.39.5.5 0 0 1 .38-.15h5.78a6.25 6.25 0 0 1 4.07 1.22 4.35 4.35 0 0 1 1.49 3.57 4.29 4.29 0 0 1-1.48 3.55 6.35 6.35 0 0 1-4.08 1.19h-3.22v5a.5.5 0 0 1-.52.52h-2a.5.5 0 0 1-.41-.14zm6-7.8a2.8 2.8 0 0 0 1.92-.6 2.23 2.23 0 0 0 .67-1.75 2.37 2.37 0 0 0-.65-1.76 2.68 2.68 0 0 0-1.94-.64h-3.15v4.75h3.15zm11.53 7.81a.5.5 0 0 1-.16-.37V14.05h-4a.5.5 0 0 1-.37-.16.49.49 0 0 1-.15-.36v-1.6a.54.54 0 0 1 .14-.38.48.48 0 0 1 .38-.16h11a.52.52 0 0 1 .38.15.53.53 0 0 1 .15.39v1.59a.5.5 0 0 1-.15.37.52.52 0 0 1-.38.15h-4V26a.51.51 0 0 1-.54.52h-2a.49.49 0 0 1-.3-.18zm9.72 0a.5.5 0 0 1-.15-.37v-14a.49.49 0 0 1 .15-.38.55.55 0 0 1 .37-.14h2a.51.51 0 0 1 .37.14.5.5 0 0 1 .14.38V26a.53.53 0 0 1-.14.37.5.5 0 0 1-.38.15h-2a.49.49 0 0 1-.36-.18zm7.52-1.12a5.9 5.9 0 0 1-1.72-4.42V17.11a5.9 5.9 0 0 1 1.77-4.39 7.47 7.47 0 0 1 9.06 0 5.89 5.89 0 0 1 1.78 4.4v3.68a6 6 0 0 1-1.75 4.42 7.75 7.75 0 0 1-9.14 0zm6.86-1.86a3.91 3.91 0 0 0 1-2.66v-3.5a3.86 3.86 0 0 0-.93-2.66 3.46 3.46 0 0 0-4.59 0 3.86 3.86 0 0 0-.93 2.66v3.49a3.89 3.89 0 0 0 .92 2.67 3 3 0 0 0 2.29.87 3.12 3.12 0 0 0 2.24-.87zm7 2.99a.51.51 0 0 1-.15-.37V12a.52.52 0 0 1 .14-.39.49.49 0 0 1 .38-.15h1.66a.64.64 0 0 1 .38.09 1.14 1.14 0 0 1 .24.25l6.21 9.66V12a.56.56 0 0 1 .14-.39.49.49 0 0 1 .38-.15h1.81a.56.56 0 0 1 .39.15.53.53 0 0 1 .15.39v14a.53.53 0 0 1-.15.39.5.5 0 0 1-.37.15h-1.68a.75.75 0 0 1-.62-.34l-6.19-9.45V26a.5.5 0 0 1-.15.38.56.56 0 0 1-.39.14h-1.81a.51.51 0 0 1-.37-.17zm17.07-.21a5 5 0 0 1-2.07-1.53 3.66 3.66 0 0 1-.75-2 .44.44 0 0 1 .45-.46h1.92a.74.74 0 0 1 .4.09c.107.087.198.192.27.31.166.521.523.96 1 1.23a3.81 3.81 0 0 0 2.11.5 4.25 4.25 0 0 0 2.31-.51 1.58 1.58 0 0 0 .78-1.41 1.35 1.35 0 0 0-.4-1 3.3 3.3 0 0 0-1.19-.67c-.52-.18-1.3-.41-2.34-.69a8.89 8.89 0 0 1-3.71-1.61 3.51 3.51 0 0 1-1.18-2.85 3.79 3.79 0 0 1 .68-2.22 4.49 4.49 0 0 1 2-1.53 7.49 7.49 0 0 1 3-.56 6.91 6.91 0 0 1 3.06.63 5 5 0 0 1 2 1.56 3.48 3.48 0 0 1 .72 1.86.44.44 0 0 1-.45.46h-2a.63.63 0 0 1-.63-.41 1.76 1.76 0 0 0-.86-1.16 3.31 3.31 0 0 0-1.81-.46 3.45 3.45 0 0 0-1.9.45 1.48 1.48 0 0 0-.69 1.32c-.015.366.11.723.35 1a2.8 2.8 0 0 0 1.08.69 19.91 19.91 0 0 0 2.15.67c1.033.224 2.04.56 3 1a4 4 0 0 1 1.63 1.29 3.71 3.71 0 0 1 .54 2.09 3.89 3.89 0 0 1-.77 2.4 4.77 4.77 0 0 1-2.16 1.56 8.76 8.76 0 0 1-3.2.54 8.62 8.62 0 0 1-3.34-.58z"/><path fill="#1ABC9C" d="M216.24 26.37a.49.49 0 0 1-.14-.36V11.94a.48.48 0 0 1 .49-.52h8.8a.48.48 0 0 1 .52.52v.86a.49.49 0 0 1-.14.36.54.54 0 0 1-.38.14h-7.2v5H225a.48.48 0 0 1 .51.52v.86a.48.48 0 0 1-.15.36.53.53 0 0 1-.37.14h-6.79V26a.46.46 0 0 1-.15.36.52.52 0 0 1-.36.14h-1.09a.52.52 0 0 1-.36-.13zm12.59 0a.48.48 0 0 1-.14-.35V11.94a.48.48 0 0 1 .49-.52h8.91a.45.45 0 0 1 .35.14.52.52 0 0 1 .14.38v.81a.48.48 0 0 1-.13.36.47.47 0 0 1-.36.14h-7.33V18h6.86a.48.48 0 0 1 .49.52v.8a.48.48 0 0 1-.49.49h-6.86v4.89h7.5a.53.53 0 0 1 .37.12c.093.1.14.234.13.37V26a.48.48 0 0 1-.5.5h-9.07a.47.47 0 0 1-.36-.13zm13.07.01a.46.46 0 0 1-.15-.36V12a.52.52 0 0 1 .14-.38.49.49 0 0 1 .36-.14h5.26a5.89 5.89 0 0 1 3.88 1.17A4.12 4.12 0 0 1 252.8 16a4.35 4.35 0 0 1-.81 2.69 4.14 4.14 0 0 1-2.28 1.47l3.29 5.69a.6.6 0 0 1 .06.24.36.36 0 0 1-.14.3.42.42 0 0 1-.31.13h-1a.78.78 0 0 1-.51-.15 1.39 1.39 0 0 1-.33-.43l-3.13-5.48h-3.77V26a.46.46 0 0 1-.15.36.55.55 0 0 1-.37.14h-1.1a.48.48 0 0 1-.35-.12zm5.53-7.75c2.14 0 3.21-.9 3.21-2.69s-1.07-2.7-3.21-2.7h-3.56v5.39h3.56zm11.71 7.75A.48.48 0 0 1 259 26V13.35h-4.13a.45.45 0 0 1-.36-.14.48.48 0 0 1-.14-.35V12a.52.52 0 0 1 .14-.36.44.44 0 0 1 .36-.16h10.39a.48.48 0 0 1 .51.51v.91a.49.49 0 0 1-.15.36.52.52 0 0 1-.36.14h-4.12V26a.49.49 0 0 1-.15.36.52.52 0 0 1-.36.13h-1.13a.45.45 0 0 1-.36-.11zm9.18.01a.51.51 0 0 1-.14-.36v-14.1a.48.48 0 0 1 .49-.49h1.15a.48.48 0 0 1 .35.14.45.45 0 0 1 .14.36V26a.51.51 0 0 1-.14.36.52.52 0 0 1-.36.14h-1.14a.51.51 0 0 1-.35-.11zm5.89 0a.45.45 0 0 1-.14-.36V11.94a.49.49 0 0 1 .14-.36.52.52 0 0 1 .36-.14h1.14a.52.52 0 0 1 .36.14.51.51 0 0 1 .14.36v12.72h7.16a.54.54 0 0 1 .38.14.52.52 0 0 1 .14.38V26a.45.45 0 0 1-.15.35.52.52 0 0 1-.37.14h-8.8a.48.48 0 0 1-.36-.1zm12.13 0a.48.48 0 0 1-.14-.35v-14.1a.48.48 0 0 1 .14-.35.45.45 0 0 1 .35-.15h1.15a.48.48 0 0 1 .49.49V26a.48.48 0 0 1-.14.35.48.48 0 0 1-.36.15h-1.13a.48.48 0 0 1-.36-.11zm9.19.01a.47.47 0 0 1-.14-.36V13.37h-4.14a.48.48 0 0 1-.49-.5V12a.48.48 0 0 1 .14-.36.45.45 0 0 1 .35-.15h10.39a.52.52 0 0 1 .38.14.54.54 0 0 1 .14.38v.9a.46.46 0 0 1-.15.36.53.53 0 0 1-.37.14h-4.11V26a.46.46 0 0 1-.15.36.53.53 0 0 1-.37.14h-1.12a.48.48 0 0 1-.36-.1zm13.21 0a.48.48 0 0 1-.14-.35V21l-5.19-8.8a1.05 1.05 0 0 0 0-.13.28.28 0 0 1 0-.15.41.41 0 0 1 .13-.3.38.38 0 0 1 .3-.13h1.12a.61.61 0 0 1 .56.37l4.2 7 4.21-7a.69.69 0 0 1 .58-.37h1.1a.43.43 0 0 1 .32.14.38.38 0 0 1 .13.3.68.68 0 0 1-.09.28L310.74 21v5.09a.45.45 0 0 1-.15.35.48.48 0 0 1-.36.14h-1.13a.45.45 0 0 1-.36-.18z"/></g><circle cx="18" cy="18" r="18" stroke="#2E4052" stroke-width="1.632"/><path fill="#2E4052" fill-rule="nonzero" stroke="#FFF" stroke-width=".888" d="M32.312 12.324c.123 3.129-6.11 2.999-9.583 3.129-3.487.106-6.412-2.337-6.533-5.458-.123-3.129 3.44-7.397 6.924-7.507 3.485-.11 9.07 6.757 9.192 9.836zM21.708 24.732c0 3.756-3.996 8.748-7.74 8.748S2.772 28.452 2.772 22.68c0-8.832 8.4-4.692 12.156-4.692a6.792 6.792 0 0 1 6.78 6.744z"/><path fill="#2E4052" fill-rule="nonzero" d="M23.4 32.592c-3.876 0-10.296-4.056-10.296-8.4 0-4.056 6.252-10.332 10.296-10.332 4.308 0 8.4 6.456 8.4 10.332-.096 4.092-4.392 8.4-8.4 8.4z"/><path fill="#FFF" fill-rule="nonzero" d="M23.4 14.496c3.744 0 7.752 6 7.752 9.708S27.084 31.98 23.4 31.98s-9.684-4.02-9.684-7.776c0-3.756 5.94-9.708 9.684-9.708m0-1.2c-4.38 0-10.908 6.552-10.908 10.944 0 4.644 6.804 9 10.908 9 4.452 0 8.976-4.536 8.976-9 0-4.116-4.344-10.944-8.976-10.944z"/><path fill="#2E4052" fill-rule="nonzero" d="M9.54 20.052c-2.952 0-4.944-.744-5.916-2.196-.972-1.452-.888-3.384.144-5.88l1.2-3.036c1.2-3.168 3.324-3.78 5.508-4.416a15.18 15.18 0 0 1 4.212-.684c2.844 0 4.236 1.2 4.896 2.184 1.068 1.596 1.092 3.936 0 6.432a12 12 0 0 0-.948 2.088c-.852 2.292-1.824 4.884-6.924 5.388a21.48 21.48 0 0 1-2.232.12h.06z"/><path fill="#FFF" fill-rule="nonzero" d="M14.688 4.452c4.8 0 6.096 3.66 4.392 7.764-1.644 2.652-1.104 6.48-7.38 7.104a20.184 20.184 0 0 1-2.16.12c-5.58 0-7.08-2.688-5.208-7.2.06-.132.216-.54.408-1.02l.792-2.028c1.14-2.856 2.868-3.396 5.124-4.056a14.4 14.4 0 0 1 4.032-.66m0-1.2c-1.486.03-2.96.268-4.38.708-2.232.648-4.548 1.332-5.916 4.8l-.336.852-.456 1.2c-.18.468-.336.864-.396.996-1.116 2.688-1.2 4.86-.096 6.444 1.104 1.584 3.264 2.472 6.432 2.472a22.428 22.428 0 0 0 2.292-.12c5.472-.552 6.564-3.456 7.44-5.784a10.632 10.632 0 0 1 .852-1.896v-.18c1.116-2.676 1.068-5.232-.108-6.996-.756-1.128-2.292-2.4-5.412-2.4l.084-.096z"/><g transform="rotate(5.71 -41.205 220.147)"><path stroke="#1ABC9C" stroke-linecap="round" stroke-width="2.043" d="M7.538 16.747c.94-1.76 1.792-3.47 4.037-5.403 2.246-1.933 5.652-2.089 6.295-2.338.61-.273.994-.497 1.338-1.501.344-1.004-.516-4.198-.035-5.125.482-.927 2.088-1.625 2.486-1.788"/><ellipse cx="5.465" cy="19.644" fill="#1ABC9C" fill-rule="nonzero" rx="4.119" ry="3.039" transform="rotate(-58 5.465 19.644)"/></g></g></svg>