<svg xmlns="http://www.w3.org/2000/svg" width="20" height="20" viewBox="0 0 20 20"><title>Icons / Brand / Instagram</title><g fill="none" fill-rule="evenodd"><path fill="#FFF" d="M-937-4937H503V137H-937z"/><g transform="translate(-10 -10)"><circle cx="20" cy="20" r="20" fill="#F0F2FA" fill-rule="nonzero"/><path d="M8 8h24v24H8z"/><path fill="#272729" fill-rule="nonzero" d="M19.997 10.006c2.715 0 3.055.012 4.122.06 1.064.049 1.79.218 2.426.465a4.9 4.9 0 0 1 1.77 1.153 4.9 4.9 0 0 1 1.154 1.77c.247.637.416 1.363.465 2.427.048 1.067.06 1.407.06 4.122s-.012 3.056-.06 4.122c-.049 1.064-.218 1.79-.465 2.426a4.9 4.9 0 0 1-1.153 1.771 4.9 4.9 0 0 1-1.77 1.153c-.637.247-1.363.416-2.427.465-1.067.048-1.407.06-4.122.06s-3.056-.012-4.122-.06c-1.064-.049-1.79-.218-2.426-.465a4.9 4.9 0 0 1-1.771-1.153 4.9 4.9 0 0 1-1.153-1.77c-.247-.636-.416-1.363-.465-2.427-.048-1.066-.06-1.407-.06-4.122s.012-3.055.06-4.122c.049-1.064.218-1.79.465-2.426a4.9 4.9 0 0 1 1.153-1.77 4.9 4.9 0 0 1 1.77-1.154c.636-.247 1.363-.416 2.427-.465 1.066-.048 1.407-.06 4.122-.06zm0 1.802c-2.67 0-2.986.01-4.04.058-.974.044-1.504.207-1.856.344-.467.181-.8.398-1.15.748-.35.35-.566.683-.747 1.15-.137.352-.3.88-.344 1.856-.049 1.054-.059 1.37-.059 4.04 0 2.668.01 2.985.059 4.039.044.974.207 1.504.344 1.856.181.467.398.8.748 1.15.35.35.682.566 1.149.747.352.137.882.3 1.856.344 1.054.049 1.37.059 4.04.059s2.985-.01 4.04-.059c.974-.044 1.503-.207 1.856-.344.466-.181.8-.398 1.15-.748.349-.35.566-.682.747-1.149.137-.352.3-.882.344-1.856.048-1.054.058-1.37.058-4.04s-.01-2.985-.058-4.04c-.044-.974-.207-1.503-.344-1.856a3.097 3.097 0 0 0-.748-1.15 3.097 3.097 0 0 0-1.15-.747c-.352-.137-.88-.3-1.856-.344-1.054-.048-1.37-.058-4.04-.058zM20 23.246a3.246 3.246 0 1 0 0-6.492 3.246 3.246 0 0 0 0 6.492zM20 15a5 5 0 1 1 0 10 5 5 0 0 1 0-10zm6.533-.333a1.2 1.2 0 1 1-2.4 0 1.2 1.2 0 0 1 2.4 0z"/></g></g></svg>