<svg xmlns="http://www.w3.org/2000/svg" width="32" height="26" viewBox="0 0 32 26"><g fill="none" fill-rule="evenodd"><path d="M0-3h32v32H0z"/><path fill="#566BC8" fill-rule="nonzero" d="M21.333 0c1.298 0 2.334 1.078 2.334 2.387V4H28c1.235 0 2.246.96 2.328 2.174l.005.16V24h.334a1 1 0 0 1 .116 1.993l-.116.007H1.333a1 1 0 0 1-.116-1.993L1.333 24h.333V6.333c0-1.234.96-2.245 2.174-2.328L4 4h4.332l.001-1.613c0-1.255.952-2.297 2.173-2.381l.16-.006zm-13 6H4a.334.334 0 0 0-.327.266l-.006.067V24h4.665v-3.334H6.667a1 1 0 0 1-.117-1.993l.117-.006 1.665-.001V16H6.667a1 1 0 0 1-.117-1.993L6.667 14h1.665v-2.667H6.667A1 1 0 0 1 6.55 9.34l.117-.007h1.665L8.333 6zM28 6h-4.334v3.333h1.667a1 1 0 0 1 .117 1.994l-.117.006h-1.667V14h1.667a1 1 0 0 1 .117 1.993l-.117.007h-1.667v2.666h1.667a1 1 0 0 1 .117 1.994l-.117.007-1.667-.001V24h4.666l.001-17.667a.334.334 0 0 0-.266-.326L28 6zm-6.667-4H10.667c-.175 0-.334.165-.334.387V24h2.666v-2h-.332a1 1 0 0 1-.117-1.993l.117-.007h6.666a1 1 0 0 1 .117 1.993l-.117.007H19v2h2.667V2.387c0-.194-.12-.345-.268-.38L21.333 2zM17 22h-2v2h2v-2zm1.668-6a1 1 0 0 1 .116 1.993l-.116.007h-5.334a1 1 0 0 1-.116-1.993l.116-.007h5.334zm0-4a1 1 0 0 1 .116 1.993l-.116.007h-5.334a1 1 0 0 1-.116-1.993l.116-.007h5.334zM16 4a1 1 0 0 1 .993.883L17 5v1h1a1 1 0 0 1 .117 1.993L18 8h-1v1a1 1 0 0 1-1.993.117L15 9V8h-1a1 1 0 0 1-.117-1.993L14 6h1V5a1 1 0 0 1 1-1z"/></g></svg>