<svg xmlns="http://www.w3.org/2000/svg" width="20" height="17" viewBox="0 0 20 17"><title>Icons / Brand / Twitter</title><g fill="none" fill-rule="evenodd"><path fill="#FFF" d="M-993-4939H447V135H-993z"/><g transform="translate(-10 -12)"><circle cx="20" cy="20" r="20" fill="#F0F2FA" fill-rule="nonzero"/><path d="M8 8h24v24H8z"/><path fill="#272729" fill-rule="nonzero" d="M30 13.933a8.203 8.203 0 0 1-2.357.648 4.118 4.118 0 0 0 1.802-2.281 8.2 8.2 0 0 1-2.605 1 4.091 4.091 0 0 0-2.995-1.3c-2.265 0-4.103 1.846-4.103 4.121 0 .324.036.639.107.938a11.624 11.624 0 0 1-8.456-4.307 4.123 4.123 0 0 0-.555 2.071 4.12 4.12 0 0 0 1.826 3.43 4.08 4.08 0 0 1-1.858-.516v.05a4.118 4.118 0 0 0 3.29 4.041 4.138 4.138 0 0 1-1.852.069 4.11 4.11 0 0 0 3.83 2.862 8.206 8.206 0 0 1-5.095 1.766 8.8 8.8 0 0 1-.979-.057 11.573 11.573 0 0 0 6.29 1.852c7.546 0 11.672-6.28 11.672-11.725 0-.18-.003-.357-.012-.534a8.319 8.319 0 0 0 2.047-2.134l.003.006z"/></g></g></svg>