<?xml version="1.0" encoding="UTF-8"?>
<svg width="20px" height="17px" viewBox="0 0 20 17" version="1.1" xmlns="http://www.w3.org/2000/svg" xmlns:xlink="http://www.w3.org/1999/xlink">
    <!-- Generator: Sketch 63.1 (92452) - https://sketch.com -->
    <title>Icons / Brand / Twitter</title>
    <desc>Created with Sketch.</desc>
    <g id="Option-1" stroke="none" stroke-width="1" fill="none" fill-rule="evenodd">
        <g id="Home" transform="translate(-993.000000, -4939.000000)">
            <rect fill="#FFFFFF" x="0" y="0" width="1440" height="5074"></rect>
            <g id="Group-54" transform="translate(229.000000, 4887.000000)">
                <g id="Group-52">
                    <g id="Footer" transform="translate(299.000000, 0.000000)">
                        <g id="Group" transform="translate(399.000000, 0.000000)">
                            <g id="2" transform="translate(56.000000, 40.000000)">
                                <circle id="Oval" fill="#F0F2FA" fill-rule="nonzero" cx="20" cy="20" r="20"></circle>
                                <g id="Icons-/-Brand-/-Twitter" transform="translate(8.000000, 8.000000)">
                                    <g id="Icon">
                                        <rect id="Path" fill-rule="nonzero" x="0" y="0" width="24" height="24"></rect>
                                        <path d="M22,5.93322314 C21.2630166,6.25992287 20.4723258,6.48171901 19.6428465,6.5806281 C20.4902283,6.07109642 21.1406833,5.26184022 21.4450246,4.29972452 C20.6513501,4.77328926 19.774131,5.11497521 18.8402208,5.30080441 C18.0913024,4.50053994 17.0261077,4 15.8445472,4 C13.5798896,4 11.7419066,5.84630303 11.7419066,8.12121212 C11.7419066,8.4449146 11.7777115,8.75962534 11.8493212,9.05934986 C8.43890795,8.88850689 5.41638073,7.24601653 3.39340594,4.75230854 C3.04132478,5.36074931 2.83843055,6.06809917 2.83843055,6.82340496 C2.83843055,8.25309091 3.56347904,9.51493113 4.66447859,10.2522534 C3.9931374,10.2312727 3.36058481,10.0454435 2.80560943,9.73672727 C2.80560943,9.75471074 2.80560943,9.76969697 2.80560943,9.78768044 C2.80560943,11.7838457 4.21990154,13.450314 6.09667313,13.8279669 C5.75354319,13.9208815 5.38952708,13.9718347 5.01655975,13.9718347 C4.75100701,13.9718347 4.49440549,13.9448595 4.24377145,13.8969036 C4.7659257,15.5333994 6.28166493,16.726303 8.07489184,16.7592727 C6.66955095,17.8652562 4.90317768,18.5246501 2.97866627,18.5246501 C2.64747128,18.5246501 2.32224377,18.5036694 2,18.4677025 C3.81411308,19.6366281 5.97135611,20.32 8.28972102,20.32 C15.835596,20.32 19.9621065,14.0407713 19.9621065,8.59477686 C19.9621065,8.41494215 19.9591228,8.23810468 19.9501716,8.06126722 C20.7527973,7.47980165 21.4480084,6.75446832 21.9970163,5.92722865 L22,5.93322314 Z" id="Shape" fill="#272729" fill-rule="nonzero"></path>
                                    </g>
                                </g>
                            </g>
                        </g>
                    </g>
                </g>
            </g>
        </g>
    </g>
</svg>
