<svg width="26" height="28" viewBox="0 0 26 28" xmlns="http://www.w3.org/2000/svg">
  <g fill="none" fill-rule="evenodd">
    <path d="M-3-1h32v32H-3z"/>
    <path d="M3.66666667 28C1.64104858 28 0 26.3589514 0 24.3333333V7c0-2.02561808 1.64104858-3.66666667 3.66666667-3.66666667L6.666 3.33266667l.00066667-1.666c0-.55228475.44771523-1 1.00000003-1 .5128358 0 .9355071.38604019.9932722.88337887l.0067278.11662113-.0006667 1.666h8.667l.0003333-1.666c0-.55228475.4477153-1 1-1 .5128359 0 .9355072.38604019.9932723.88337887l.0067277.11662113-.0003333 1.666 3.0003333.00066666c1.9602756 0 3.5603924 1.53688213 3.6615859 3.47188182L26 7v17.3333333C26 26.3589514 24.3589514 28 22.3333333 28zM24 11.9996667H2v12.3336666c0 .8725724.66919739 1.5876946 1.52277894 1.6605536L3.66666667 26 17.333 25.9996667 17.3333333 23c0-1.2346062.9597756-2.2458237 2.1736226-2.3279484l.1597108-.0053849L24 20.6656667v-8.666zm0 10.666l-4.3333333.001c-.1607509 0-.2953961.1145513-.3265456.266264L19.3333333 23 19.333 25.9996667 22.3333333 26c.8725724 0 1.5876946-.6691974 1.6605536-1.5227789L24 24.3333333v-1.6676666zm-11-1.999c.5522847 0 1 .4477152 1 1 0 .5128358-.3860402.9355071-.8833789.9932722L13 22.6666667H6.33333333c-.55228475 0-1-.4477153-1-1 0-.5128359.38604019-.9355072.88337888-.9932723l.11662112-.0067277H13zm6.6666667-5.3333334c.5522847 0 1 .4477153 1 1 0 .5128359-.3860402.9355072-.8833789.9932723l-.1166211.0067277H6.33333333c-.55228475 0-1-.4477152-1-1 0-.5128358.38604019-.9355071.88337888-.9932722l.11662112-.0067278H19.6666667zM6.666 5.33266667l-2.99933333.00066666C2.74561808 5.33333333 2 6.07895142 2 7v2.9996667h22V7c0-.87257234-.6691974-1.5876946-1.5227789-1.66055352l-.1438878-.00611315L19.333 5.33266667 19.3333333 7c0 .55228475-.4477152 1-1 1-.5128358 0-.9355071-.38604019-.9932722-.88337887L17.3333333 7 17.333 5.33266667H8.666L8.6666667 7c0 .55228475-.4477153 1-1 1-.5128359 0-.93550719-.38604019-.9932723-.88337887L6.66666667 7 6.666 5.33266667z" fill="#566BC8" fill-rule="nonzero"/>
  </g>
</svg>
