<?xml version="1.0" encoding="UTF-8"?>
<svg width="20px" height="20px" viewBox="0 0 20 20" version="1.1" xmlns="http://www.w3.org/2000/svg" xmlns:xlink="http://www.w3.org/1999/xlink">
    <!-- Generator: Sketch 63.1 (92452) - https://sketch.com -->
    <title>Icons / Brand / Instagram</title>
    <desc>Created with Sketch.</desc>
    <g id="Option-1" stroke="none" stroke-width="1" fill="none" fill-rule="evenodd">
        <g id="Home" transform="translate(-937.000000, -4937.000000)">
            <rect fill="#FFFFFF" x="0" y="0" width="1440" height="5074"></rect>
            <g id="Group-54" transform="translate(229.000000, 4887.000000)">
                <g id="Group-52">
                    <g id="Footer" transform="translate(299.000000, 0.000000)">
                        <g id="Group" transform="translate(399.000000, 0.000000)">
                            <g id="1" transform="translate(0.000000, 40.000000)">
                                <circle id="Oval" fill="#F0F2FA" fill-rule="nonzero" cx="20" cy="20" r="20"></circle>
                                <g id="Icons-/-Brand-/-Instagram" transform="translate(8.000000, 8.000000)">
                                    <g id="Icon">
                                        <rect id="Path" fill-rule="nonzero" x="0" y="0" width="24" height="24"></rect>
                                        <path d="M11.9968651,2.00630952 C14.7118254,2.00630952 15.0522619,2.01781746 16.1185317,2.06646825 C17.1825794,2.115 17.9092857,2.28400794 18.5451587,2.53115079 C19.2025397,2.7865873 19.7600397,3.1284127 20.3158333,3.68416667 C20.8715873,4.23996032 21.2134127,4.79746032 21.4688889,5.45484127 C21.7159921,6.09071429 21.885,6.81742063 21.9335317,7.88146825 C21.9821825,8.9477381 21.9936905,9.2881746 21.9936905,12.0031746 C21.9936905,14.7181349 21.9821825,15.0585714 21.9335317,16.1248413 C21.885,17.1888889 21.7159921,17.9155952 21.4688889,18.5514683 C21.2134127,19.2088492 20.8715873,19.7663492 20.3158333,20.3221429 C19.7600397,20.8778968 19.2025397,21.2197222 18.5451587,21.4751984 C17.9092857,21.7223016 17.1825794,21.8913095 16.1185317,21.9398413 C15.0522619,21.9884921 14.7118254,22 11.9968651,22 C9.28186508,22 8.94142857,21.9884921 7.87515873,21.9398413 C6.81111111,21.8913095 6.08440476,21.7223016 5.44853175,21.4751984 C4.79115079,21.2197222 4.23365079,20.8778968 3.67785714,20.3221429 C3.12210317,19.7663492 2.78027778,19.2088492 2.52484127,18.5514683 C2.27769841,17.9155952 2.10869048,17.1888889 2.06015873,16.1248413 C2.01150794,15.0585714 2,14.7181349 2,12.0031746 C2,9.2881746 2.01150794,8.9477381 2.06015873,7.88146825 C2.10869048,6.81742063 2.27769841,6.09071429 2.52484127,5.45484127 C2.78027778,4.79746032 3.12210317,4.23996032 3.67785714,3.68416667 C4.23365079,3.1284127 4.79115079,2.7865873 5.44853175,2.53115079 C6.08440476,2.28400794 6.81111111,2.115 7.87515873,2.06646825 C8.94142857,2.01781746 9.28186508,2.00630952 11.9968651,2.00630952 Z M11.9968651,3.80753968 C9.32757937,3.80753968 9.01138889,3.8177381 7.9572619,3.86583333 C6.98257937,3.91027778 6.45325397,4.07313492 6.10099206,4.21003968 C5.63436508,4.39138889 5.30134921,4.60801587 4.95154762,4.95785714 C4.60170635,5.30765873 4.38507937,5.6406746 4.20373016,6.10730159 C4.0668254,6.45956349 3.90396825,6.98888889 3.85952381,7.96357143 C3.81142857,9.01769841 3.80123016,9.33388889 3.80123016,12.0031746 C3.80123016,14.6724206 3.81142857,14.9886111 3.85952381,16.0427381 C3.90396825,17.0174206 4.0668254,17.546746 4.20373016,17.8990079 C4.38507937,18.3656349 4.60174603,18.6986508 4.95154762,19.0484524 C5.30134921,19.3982937 5.63436508,19.6149206 6.10099206,19.7962698 C6.45325397,19.9331746 6.98257937,20.0960317 7.9572619,20.1404762 C9.01126984,20.1885714 9.32738095,20.1987698 11.9968651,20.1987698 C14.6663095,20.1987698 14.9824603,20.1885714 16.0364286,20.1404762 C17.0111111,20.0960317 17.5404365,19.9331746 17.8926984,19.7962698 C18.3593254,19.6149206 18.6923413,19.3982937 19.0421429,19.0484524 C19.3919841,18.6986508 19.6086111,18.3656349 19.7899603,17.8990079 C19.9268651,17.546746 20.0897222,17.0174206 20.1341667,16.0427381 C20.1822619,14.9886111 20.1924603,14.6724206 20.1924603,12.0031746 C20.1924603,9.33388889 20.1822619,9.01769841 20.1341667,7.96357143 C20.0897222,6.98888889 19.9268651,6.45956349 19.7899603,6.10730159 C19.6086111,5.6406746 19.3919841,5.30765873 19.0421429,4.95785714 C18.6923413,4.60801587 18.3593254,4.39138889 17.8926984,4.21003968 C17.5404365,4.07313492 17.0111111,3.91027778 16.0364286,3.86583333 C14.9823016,3.8177381 14.6661111,3.80753968 11.9968651,3.80753968 Z M12.0000193,15.2456161 C13.7925126,15.2456161 15.2456161,13.7925126 15.2456161,12.0000193 C15.2456161,10.2074874 13.7925126,8.75438393 12.0000193,8.75438393 C10.2074874,8.75438393 8.75438393,10.2074874 8.75438393,12.0000193 C8.75438393,13.7925126 10.2074874,15.2456161 12.0000193,15.2456161 Z M12.0000193,7 C14.7614415,7 17,9.23855849 17,12.0000193 C17,14.7614415 14.7614415,17 12.0000193,17 C9.23855849,17 7,14.7614415 7,12.0000193 C7,9.23855849 9.23855849,7 12.0000193,7 Z M18.5328175,6.6668254 C18.5328175,7.32936508 17.9957143,7.86642857 17.3331746,7.86642857 C16.6706746,7.86642857 16.1335714,7.32936508 16.1335714,6.6668254 C16.1335714,6.00428571 16.6706746,5.46718254 17.3331746,5.46718254 C17.9957143,5.46718254 18.5328175,6.00428571 18.5328175,6.6668254 Z" id="Shape" fill="#272729" fill-rule="nonzero"></path>
                                    </g>
                                </g>
                            </g>
                        </g>
                    </g>
                </g>
            </g>
        </g>
    </g>
</svg>
