<svg width="32" height="26" viewBox="0 0 32 26" xmlns="http://www.w3.org/2000/svg">
  <g fill="none" fill-rule="evenodd">
    <path d="M0-3h32v32H0z"/>
    <path d="M21.3333333 0c1.2972271 0 2.3333334 1.07760772 2.3333334 2.38666667L23.6663333 4H28c1.2346062 0 2.2458237.95977552 2.3279484 2.1736226l.0053849.15971073L30.3323333 24h.3343334c.5522847 0 1 .4477153 1 1 0 .5128358-.3860402.9355072-.8833789.9932723L30.6666667 26H1.33333333c-.55228475 0-1-.4477153-1-1 0-.5128358.3860402-.9355072.88337888-.9932723L1.33333333 24h.333l.00033334-17.66666667c0-1.23460622.95977552-2.24582366 2.17362259-2.32794837L4 4h4.33233333l.001-1.61333333c0-1.25451483.95156284-2.2964642 2.17259597-2.38111534L10.6666667 0zM8.333 6H4c-.16075084 0-.29539604.11455134-.32654561.26626405l-.00678772.06706928L3.66633333 24h4.666v-3.334l-1.66566666.0006667c-.55228475 0-1-.4477153-1-1 0-.5128359.38604019-.9355072.88337887-.9932723l.11662113-.0067277L8.33233333 18.666V16H6.66666667c-.55228475 0-1-.4477153-1-1 0-.5128358.38604019-.9355072.88337887-.9932723L6.66666667 14h1.66566666v-2.667l-1.66566666.0003333c-.55228475 0-1-.4477152-1-1 0-.5128358.38604019-.9355071.88337887-.9932722l.11662113-.0067278L8.33233333 9.333 8.333 6zM28 6h-4.3336667v3.333l1.667.0003333c.5522848 0 1 .4477153 1 1 0 .5128359-.3860402.9355072-.8833788.9932723l-.1166212.0067277-1.667-.0003333V14h1.667c.5522848 0 1 .4477153 1 1 0 .5128358-.3860402.9355072-.8833788.9932723L25.3333333 16h-1.667v2.666l1.667.0006667c.5522848 0 1 .4477152 1 1 0 .5128358-.3860402.9355071-.8833788.9932722l-.1166212.0067278-1.667-.0006667V24h4.666l.001-17.66666667c0-.16075084-.1145513-.29539604-.266264-.32654561L28 6zm-6.6666667-4H10.6666667c-.1747021 0-.3333334.16498528-.3333334.38666667L10.333 24h2.6663333v-2h-.3326666c-.5522848 0-1-.4477153-1-1 0-.5128358.3860402-.9355072.8833788-.9932723L12.6666667 20h6.6666666c.5522848 0 1 .4477153 1 1 0 .5128358-.3860402.9355072-.8833788.9932723L19.3333333 22h-.334v2H21.666l.0006667-21.61333333c0-.19397121-.1214521-.34453447-.2688518-.37914449L21.3333333 2zM16.999 22h-2v2h2v-2zm1.6676667-6c.5522847 0 1 .4477153 1 1 0 .5128358-.3860402.9355072-.8833789.9932723L18.6666667 18h-5.3333334c-.5522847 0-1-.4477153-1-1 0-.5128358.3860402-.9355072.8833789-.9932723L13.3333333 16h5.3333334zm0-4c.5522847 0 1 .4477153 1 1 0 .5128358-.3860402.9355072-.8833789.9932723L18.6666667 14h-5.3333334c-.5522847 0-1-.4477153-1-1 0-.5128358.3860402-.9355072.8833789-.9932723L13.3333333 12h5.3333334zM16 4c.5128358 0 .9355072.38604019.9932723.88337887L17 5l-.0006667 1H18c.5522847 0 1 .44771525 1 1 0 .5128358-.3860402.9355072-.8833789.9932723L18 8h-1.0006667L17 9c0 .5522847-.4477153 1-1 1-.5128358 0-.9355072-.3860402-.9932723-.8833789L15 9l-.0006667-1H14c-.5522847 0-1-.4477153-1-1 0-.51283584.3860402-.93550716.8833789-.99327227L14 6h.9993333L15 5c0-.55228475.4477153-1 1-1z" fill="#566BC8" fill-rule="nonzero"/>
  </g>
</svg>
